<?xml version="1.0" encoding="UTF-8"?>
<svg width="20px" height="20px" viewBox="0 0 20 20" version="1.1" xmlns="http://www.w3.org/2000/svg" xmlns:xlink="http://www.w3.org/1999/xlink">
    <!-- Generator: Sketch 50 (54983) - http://www.bohemiancoding.com/sketch -->
    <title>dribble</title>
    <desc>Created with Sketch.</desc>
    <defs></defs>
    <g id="Page-1" stroke="none" stroke-width="1" fill="none" fill-rule="evenodd">
        <path d="M16.3156734,4.4925298 C15.190758,6.10689725 13.595381,7.02220114 11.8939441,7.82248739 C12.1128718,8.31158107 12.2902354,8.75319862 12.5118504,9.171526 C12.5663135,9.27489854 12.7637426,9.35856402 12.894705,9.35748909 C14.4746747,9.34530654 16.0541069,9.31502931 17.6337182,9.29048505 C17.848167,9.28726025 18.0626157,9.29012674 18.3109248,9.29012674 C18.1521933,7.44303669 17.5183423,5.88223664 16.3156734,4.4925298 M15.3075672,3.54981517 C13.8811335,1.90427472 9.47481152,0.931282863 8.07130974,1.86486058 C9.13692483,3.36134391 10.2039732,4.85979795 11.2975365,6.39569543 C12.8081731,5.76059026 14.2251115,4.89509152 15.3075672,3.54981517 M14.5520697,16.7614358 C16.2646142,16.0564601 18.4056979,12.5958984 18.2163309,10.7355508 C16.5233143,10.5861354 14.8267146,10.5662492 13.1842198,10.7368049 C13.6478735,12.7797116 14.1011361,14.7747838 14.5520697,16.7614358 M9.5308871,7.03707102 C9.51297158,6.95053906 9.51440482,6.90252547 9.49416029,6.86669443 C8.64102325,5.35354966 7.63972488,3.95004788 6.43902677,2.68951193 C6.224578,2.46449301 6.06387579,2.54152974 5.85856394,2.66210119 C3.96166875,3.77447579 2.69289167,5.39027648 1.99938191,7.46776011 C1.9594303,7.58761493 1.94187309,7.71481512 1.89959247,7.90095736 C4.52762001,8.0419525 7.05012513,7.78038592 9.5308871,7.03707102 M10.8774175,9.57910406 C10.7099074,9.2439047 10.5751827,8.9300248 10.396565,8.64319733 C10.3394145,8.55164903 10.1590052,8.47729962 10.0466749,8.49091542 C9.68012338,8.53552506 9.3153634,8.60915784 8.9566947,8.6989146 C6.70023504,9.26289515 4.40722771,9.47573152 2.08734711,9.40424859 C1.73136574,9.39314097 1.62405178,9.49812592 1.62369347,9.84980756 C1.62208107,11.839326 2.27026456,13.5875224 3.53115882,15.1158953 C3.59189243,15.1895281 3.67699115,15.2429164 3.75295295,15.3075914 C6.08214962,11.9831876 7.04618372,11.2060124 10.8774175,9.57910406 M4.84006666,16.3588741 C7.10028859,18.3066493 10.3360105,18.6135422 12.733107,17.6994924 C12.8303883,17.6624072 12.9291028,17.4447337 12.9142329,17.3252372 C12.6610866,15.2798223 12.1908043,13.2840335 11.526676,11.3323168 C11.4197203,11.018616 11.2860705,10.9530452 10.9741613,11.0580302 C8.21212572,11.9901747 6.34031226,13.9323961 4.84006666,16.3588741 M20,9.31072958 C19.8910736,12.5025585 18.9945811,14.8236932 17.160211,16.7694978 C16.08313,17.9117913 14.8313727,18.6538521 13.4710473,19.1502911 C11.2803376,19.9500399 8.86371316,19.9713594 6.66010428,19.2076208 C5.35657109,18.7556122 4.1445862,18.0837803 3.08327083,17.0430677 C1.05953377,15.058924 -0.0037523096,12.6267131 9.94947271e-06,9.83744585 C0.00341389815,7.18361997 1.0125951,4.84707793 2.8870959,2.91094775 C3.86152099,1.90445387 4.97084995,1.21488553 6.17011482,0.733853839 C8.59336797,-0.238242242 11.3206475,-0.243975208 13.7499919,0.713071837 C14.9338494,1.17977112 16.0322499,1.84694506 17.0004046,2.8263865 C18.8345955,4.68189684 19.97456,7.2934421 20,9.31072958" id="dribble" fill="#0B37B0"></path>
    </g>
</svg>