<?xml version="1.0" encoding="UTF-8"?>
<svg width="20px" height="20px" viewBox="0 0 20 20" version="1.1" xmlns="http://www.w3.org/2000/svg" xmlns:xlink="http://www.w3.org/1999/xlink">
    <!-- Generator: Sketch 50 (54983) - http://www.bohemiancoding.com/sketch -->
    <title>Insta</title>
    <desc>Created with Sketch.</desc>
    <defs></defs>
    <g id="Page-1" stroke="none" stroke-width="1" fill="none" fill-rule="evenodd">
        <g id="Insta" fill="#0B37B0">
            <path d="M18.1343243,14.0678919 C18.1271171,14.8808649 17.9496396,15.6787027 17.499009,16.3835676 C16.7146847,17.6096937 15.4955856,18.0358198 14.1406306,18.0567207 C11.3501802,18.0997838 8.55846847,18.0785225 5.7672973,18.0621261 C5.33774775,18.0596036 4.89954955,17.9769009 4.48045045,17.8716757 C2.98207207,17.4952793 1.99108108,16.3646486 1.82621622,14.7698739 C1.72135135,13.7570811 1.6854955,12.734018 1.68153153,11.7150991 C1.67396396,9.74933333 1.70009009,7.78302703 1.73720721,5.81762162 C1.74603604,5.35654054 1.81612613,4.88843243 1.92351351,4.43924324 C2.28693694,2.92176577 3.43,1.88897297 5.04477477,1.75545946 C6.6872973,1.61942342 8.34009009,1.60735135 9.77954955,1.54933333 C11.5058559,1.60536937 13.03,1.56320721 14.5321622,1.72446847 C16.891982,1.97816216 18.0712613,3.26609009 18.1278378,5.64987387 C18.1941441,8.45455856 18.159009,11.2621261 18.1343243,14.0678919 M19.8076577,5.1750991 C19.6651351,2.14140541 17.8784685,0.250414414 14.7952252,0.0976216216 C11.5638739,-0.0625585586 8.31684685,0.00338738739 5.07990991,0.0907747748 C3.74477477,0.126630631 2.46801802,0.567531532 1.50027027,1.62879279 C0.60027027,2.61581982 0.0838738739,3.78338739 0.0602702703,5.08609009 C0.00297297297,8.24951351 -0.0382882883,11.4169009 0.0613513514,14.577982 C0.154324324,17.5174414 2.28171171,19.5821261 5.21540541,19.7565405 C6.77198198,19.8493333 8.33342342,19.8612252 9.92837838,19.9107748 C11.5145045,19.861045 13.1363063,19.8522162 14.7523423,19.7505946 C17.5737838,19.5734775 19.7193694,17.4882523 19.811982,14.6655495 C19.9154054,11.5044685 19.9561261,8.33221622 19.8076577,5.1750991" id="Fill-6"></path>
            <path d="M9.9187027,13.2322703 C8.04320721,13.2241622 6.56338739,11.7263243 6.5714955,9.84398198 C6.5796036,7.96848649 8.07762162,6.48866667 9.95978378,6.49677477 C11.8358198,6.50506306 13.3149189,8.00254054 13.3068108,9.88506306 C13.2987027,11.7607387 11.8008649,13.2403784 9.9187027,13.2322703 M9.94969369,4.7438018 C7.10969369,4.74127928 4.82068468,7.02073874 4.81816216,9.85407207 C4.81581982,12.6940721 7.09527928,14.9829009 9.92879279,14.9854234 C12.7684324,14.9879459 15.0576216,12.7083063 15.059964,9.87497297 C15.0624865,7.03479279 12.7832072,4.74614414 9.94969369,4.7438018" id="Fill-8"></path>
            <path d="M15.3094955,3.32693694 C14.6799459,3.31972973 14.1284144,3.86135135 14.1204865,4.49432432 C14.1127387,5.12459459 14.6532793,5.67486486 15.2880541,5.68279279 C15.9170631,5.69054054 16.4693153,5.14837838 16.4768829,4.51576577 C16.4844505,3.88513514 15.9433694,3.33414414 15.3094955,3.32693694" id="Fill-10"></path>
        </g>
    </g>
</svg>