<svg width="178" height="99" viewBox="0 0 178 99" fill="none" xmlns="http://www.w3.org/2000/svg">
<g clip-path="url(#clip0)">
<path d="M70.3422 37.6488C70.4207 37.7857 70.4825 37.8745 70.5278 37.9724C71.3937 39.8899 72.2822 41.7983 73.1119 43.7324C73.5253 44.6972 73.824 45.7116 74.1891 46.699C74.355 47.1475 74.5556 47.5825 74.7397 48.0235C74.7864 48.1364 74.8332 48.2507 74.8785 48.3651C75.0716 48.8558 74.9644 49.3705 74.4621 49.7273C74.011 50.0463 73.5419 50.3127 73.032 50.5235C71.9066 50.987 70.7918 51.4747 69.6679 51.9428C68.7718 52.316 67.8788 52.7028 66.9646 53.034C66.2586 53.2898 65.5269 53.478 64.8013 53.6767C63.7997 53.9521 62.795 54.2185 61.7857 54.4714C60.419 54.8145 59.0462 55.108 57.6372 55.2465C56.3323 55.3744 55.0425 55.2826 53.7467 55.1712C52.9698 55.1035 52.1914 55.0583 51.4145 54.9906C50.5561 54.9154 49.6932 54.8657 48.8439 54.7332C48.0715 54.6128 47.3338 54.3479 46.6444 53.9626C46.2627 53.7489 45.8735 53.5487 45.4843 53.35C43.9471 52.5659 42.422 51.7607 41.0401 50.7176C40.0143 49.9425 38.9825 49.1749 37.9974 48.3501C37.4664 47.9046 37.0304 47.3477 36.5537 46.8389C36.3199 46.5891 36.0936 46.3332 35.8583 46.0864C35.5686 45.7824 35.288 45.4949 35.1266 45.0735C34.8928 44.4654 34.5443 43.901 34.2381 43.3215C33.6301 42.1686 33.164 40.963 32.8035 39.7108C32.4142 38.3531 32.2347 36.9624 32.0552 35.5672C31.9225 34.5362 31.8214 33.5082 31.8123 32.4697C31.8018 31.1994 31.7565 29.9306 31.7369 28.6603C31.7037 26.5697 31.6751 24.4806 31.6509 22.39C31.6343 20.9044 31.8757 19.4595 32.283 18.0312C32.8653 15.9872 33.6528 14.0246 34.5383 12.098C34.9018 11.3064 35.3469 10.5508 35.7783 9.79222C35.9443 9.50023 36.1811 9.24737 36.3757 8.97043C36.5386 8.73714 36.6684 8.47977 36.8464 8.25852C37.4422 7.52252 38.1467 6.90693 38.8965 6.32144C39.7669 5.64113 40.7113 5.0993 41.6858 4.60411C42.3797 4.25192 43.1129 3.97498 43.8204 3.64386C45.6518 2.78745 47.6174 2.42472 49.5846 2.05898C51.2048 1.75796 52.8325 1.5638 54.4828 1.65561C55.4936 1.7113 56.5028 1.78956 57.5105 1.88589C58.5167 1.98222 59.5244 2.08757 60.5246 2.23508C61.9607 2.4473 63.3788 2.7438 64.7802 3.13061C65.8679 3.43164 66.9163 3.82296 67.9089 4.35577C68.8774 4.87503 69.766 5.5132 70.5927 6.23415C71.1388 6.70976 71.6954 7.17634 72.1993 7.6941C72.7212 8.23293 73.1919 8.81691 73.5253 9.50625C73.8104 10.0978 73.8979 10.7344 74.0171 11.362C74.1287 11.949 74.2479 12.5421 74.1151 13.1456C74.1091 13.1712 74.1121 13.1998 74.1121 13.2269C74.0804 14.3452 74.0684 15.4665 74.0141 16.5833C73.9447 18.0282 73.8315 19.464 73.4725 20.8788C73.0984 22.3508 72.6956 23.8138 72.1314 25.2226C71.6954 26.3123 71.187 27.3719 70.5052 28.3397C69.7071 29.473 68.71 30.3881 67.5288 31.1136C66.6418 31.6569 65.7789 32.2394 64.8873 32.7737C64.2039 33.1831 63.4467 33.442 62.6848 33.6647C61.6862 33.9582 60.6619 34.1328 59.627 34.2472C59.0568 34.3104 58.4941 34.4414 57.9238 34.5031C57.0278 34.6009 56.1302 34.7123 55.225 34.5768C54.8343 34.5181 54.4361 34.5061 54.0408 34.4775C53.2504 34.4188 52.4554 34.3917 51.6694 34.2969C51.1278 34.2307 50.5863 34.1133 50.0673 33.9477C49.0385 33.6196 48.0096 33.2764 47.0095 32.8715C46.3382 32.6006 45.7498 32.1536 45.1977 31.6825C44.2881 30.9044 43.5428 29.9832 42.8866 28.9854C42.081 27.7632 41.6964 26.4282 41.6873 24.9637C41.6783 23.6814 41.5893 22.399 41.5696 21.1167C41.5561 20.1835 41.7145 19.2699 42.0162 18.3834C42.2892 17.5812 42.5502 16.7744 42.8232 15.9737C43.0254 15.3822 43.392 14.884 43.7751 14.4039C44.9277 12.959 46.394 11.934 48.1152 11.2702C49.2029 10.8518 50.3072 10.4816 51.4537 10.2633C51.8685 10.1851 52.2939 10.161 52.7118 10.0993C53.2443 10.021 53.7723 10.0677 54.3063 10.0872C55.0365 10.1143 55.7455 10.2332 56.4606 10.3717C57.4502 10.5628 58.3719 10.9391 59.3072 11.2913C60.2862 11.6601 61.0601 12.2892 61.7269 13.0703C61.8687 13.2359 62.0196 13.3954 62.1553 13.567C62.2911 13.7371 62.4389 13.9057 62.534 14.0998C62.7195 14.4791 62.9202 14.8629 63.0197 15.2678C63.1012 15.6019 63.0982 15.9782 63.0393 16.3184C62.8945 17.1582 62.4872 17.8822 61.9245 18.5218C60.8987 19.6913 59.7115 20.6711 58.3885 21.4854C57.678 21.9219 56.9704 22.3674 56.2282 22.7452C55.2477 23.2464 54.1977 23.5399 53.0935 23.6603C52.131 23.7656 51.1761 23.7566 50.2363 23.5579C49.6796 23.4405 49.1426 23.2193 48.604 23.0236C48.1077 22.843 47.8844 22.4487 47.8648 21.9445C47.8271 20.9902 47.812 20.0345 47.7804 19.0787C47.7668 18.6829 47.7366 18.2886 47.7125 17.8942C47.6431 16.7579 48.0006 16.2235 49.0641 15.7088C49.298 15.5959 49.5318 15.477 49.7445 15.3325C50.5304 14.7997 51.4114 14.5122 52.3256 14.309C52.4704 14.2774 52.6258 14.282 52.7752 14.282C54.0001 14.282 55.2024 14.4641 56.3957 14.7184C56.9041 14.8268 57.1756 15.167 57.1681 15.6802C57.159 16.3214 57.1409 16.9626 57.0957 17.6022C57.07 17.9484 56.9795 17.9996 56.6521 17.98C55.5811 17.9198 54.5236 17.7798 53.5189 17.3855C52.7088 17.0679 52.0842 17.4126 51.4869 17.8912C51.3496 18.0011 51.3586 18.1365 51.4416 18.2931C51.8942 19.1555 52.6334 19.7274 53.4751 20.1323C53.9805 20.3746 54.5522 20.4619 55.1421 20.2091C56.4756 19.6371 57.8439 19.1495 59.1684 18.558C59.811 18.2705 60.3933 17.8415 60.9847 17.4517C61.2728 17.2621 61.2909 16.9159 61.3302 16.6073C61.4629 15.5613 60.9334 14.8434 60.1535 14.2383C59.3615 13.6242 58.5318 13.0719 57.6191 12.6534C57.3883 12.5481 57.1243 12.4954 56.8694 12.4608C56.2328 12.3765 55.5931 12.2561 54.955 12.2606C53.712 12.2696 52.5142 12.5436 51.3828 13.0719C50.6768 13.4015 49.9647 13.7221 49.2753 14.0863C48.3732 14.5634 47.6084 15.2061 46.928 15.9782C46.1918 16.8135 45.6292 17.7302 45.2203 18.7551C44.9684 19.3873 44.8492 20.0616 44.8673 20.7193C44.8885 21.4628 45.2098 22.1431 45.7378 22.7076C46.9491 24.0035 48.4532 24.8102 50.1201 25.3475C50.4837 25.4649 50.8714 25.5101 51.2319 25.6335C51.8444 25.8427 52.4538 25.7569 53.0603 25.6591C54.2882 25.4589 55.5147 25.2422 56.7381 25.0104C58.2527 24.7229 59.7039 24.2668 61.0496 23.4827C61.9004 22.9875 62.8085 22.5902 63.6895 22.1461C64.7093 21.6329 65.5632 20.918 66.2465 20.0059C66.9118 19.1194 67.5378 18.2043 67.9949 17.1898C68.3253 16.4553 68.6165 15.7028 68.9302 14.9608C69.0373 14.7064 68.9996 14.5047 68.8186 14.285C67.9995 13.2946 67.1486 12.3479 66.15 11.5186C64.6897 10.307 63.0227 9.59204 61.217 9.10138C59.9981 8.77025 58.7671 8.51137 57.5196 8.3413C57.0489 8.27658 56.5526 8.26303 56.0864 8.33979C54.1148 8.6649 52.1491 9.04117 50.2468 9.6688C49.4835 9.92016 48.7398 10.2498 48.0202 10.608C47.0532 11.0881 46.0983 11.5968 45.1721 12.1522C43.754 13.0026 42.5306 14.0773 41.5349 15.4153C40.5348 16.7579 39.8469 18.2539 39.2465 19.7967C38.7004 21.1994 38.284 22.6443 37.9024 24.0983C37.7862 24.5438 37.7817 24.9968 37.8752 25.4393C38.1709 26.815 38.5058 28.1831 39.0594 29.4835C39.5165 30.5552 40.0717 31.5756 40.7671 32.5133C41.5153 33.5218 42.2726 34.5226 43.0299 35.5251C43.6937 36.4025 44.4902 37.1491 45.3667 37.8113C46.4121 38.603 47.4439 39.4158 48.5256 40.1563C49.1878 40.6108 49.927 40.951 50.6375 41.3333C50.8653 41.4567 51.1203 41.5304 51.3481 41.6554C52.0088 42.0181 52.742 41.994 53.457 42.0933C55.047 42.3146 56.5616 41.9458 58.0717 41.55C59.4339 41.1933 60.7901 40.8065 62.1433 40.4136C63.062 40.1472 63.9716 39.8492 64.8858 39.5633C65.3173 39.4293 65.7427 39.2728 66.1786 39.1569C67.4157 38.8318 68.5757 38.3035 69.763 37.8459C69.9425 37.7812 70.125 37.724 70.3422 37.6488Z" fill="black"/>
<path d="M120.429 93.0082C119.9 93.6147 119.423 94.1942 118.91 94.7405C118.296 95.3938 117.542 95.8633 116.765 96.3058C115.727 96.8958 114.626 97.1939 113.43 97.1713C113.034 97.1638 112.638 97.2089 112.241 97.2315C111.213 97.2917 110.382 96.8492 109.634 96.208C109.003 95.6677 108.558 94.9723 108.067 94.3161C106.929 92.7959 106.127 91.1057 105.656 89.28C105.301 87.9073 105.068 86.5001 105.107 85.0702C105.131 84.1702 105.208 83.2731 105.259 82.3746C105.289 81.8433 105.318 81.312 105.347 80.7807C105.406 79.691 105.416 78.5952 105.537 77.5116C105.694 76.0892 105.934 74.6759 106.145 73.2596C106.261 72.477 106.391 71.6973 106.514 70.9162C106.516 70.9026 106.513 70.8876 106.519 70.8755C106.765 70.3999 106.677 69.8701 106.745 69.3674C106.815 68.8557 106.804 68.3334 106.837 67.8157C106.917 66.5499 106.98 65.2811 107.091 64.0183C107.189 62.8909 107.33 61.7681 107.472 60.6453C107.54 60.105 107.37 59.6264 107.071 59.22C106.442 58.3666 105.688 57.6336 104.751 57.1083C104.205 56.8013 103.604 56.7802 102.948 57.0376C102.969 57.4891 102.996 57.9497 103.011 58.4117C103.022 58.7233 103.031 59.0364 103.013 59.3479C102.971 60.096 102.928 60.8455 102.858 61.592C102.778 62.4198 102.669 63.2446 102.566 64.0709C102.52 64.4502 102.459 64.8265 102.41 65.2058C102.301 66.0306 102.197 66.8554 102.091 67.6802C101.999 68.3966 101.933 69.1176 101.814 69.8295C101.628 70.9327 101.465 72.0435 101.185 73.1242C100.915 74.1642 100.519 75.1741 100.157 76.1886C99.9144 76.8704 99.6383 77.5402 99.3683 78.2114C98.9097 79.3523 98.2625 80.3728 97.4057 81.2578C97.2171 81.4534 97.0315 81.6521 96.8354 81.8403C96.1113 82.5296 95.2017 82.7945 94.2543 83.0067C92.9932 83.2897 91.7184 83.2505 90.4497 83.1873C89.6593 83.1482 89.0045 82.7117 88.4298 82.1789C88.2895 82.0495 88.1597 81.9065 88.0195 81.777C87.7464 81.5287 87.5986 81.2126 87.5005 80.8634C87.3104 80.1907 87.4009 79.5103 87.4372 78.8315C87.4537 78.5185 87.502 78.2054 87.5035 77.8939C87.5065 76.9336 87.6303 75.9944 87.8761 75.0627C88.2216 73.7563 88.5354 72.4393 89.0754 71.1976C89.9293 69.232 90.6489 67.2091 91.6264 65.2961C92.1559 64.2621 92.5949 63.1829 93.138 62.1564C93.7761 60.9494 94.4821 59.7769 95.1594 58.5908C95.2605 58.4132 95.3842 58.2477 95.4777 58.0656C95.9605 57.1264 96.7163 56.4054 97.4193 55.6438C97.5294 55.5249 97.6455 55.4121 97.7632 55.2916C97.727 55.2074 97.7149 55.1321 97.6712 55.0885C97.2277 54.6445 96.7932 54.1914 96.3286 53.77C95.9469 53.4223 95.4581 53.3877 94.9709 53.4464C93.6207 53.6089 92.3928 54.0725 91.3639 54.9831C91.1829 55.1441 91.0215 55.3428 90.9008 55.552C90.1179 56.8976 89.3394 58.2462 88.5746 59.6023C87.9923 60.6378 87.4236 61.6823 86.8639 62.7299C86.176 64.0168 85.5122 65.3157 85.0355 66.7004C84.5151 68.21 83.9599 69.7076 83.4742 71.2277C83.0005 72.7088 82.5887 74.2109 82.1587 75.7054C81.7816 77.0164 81.403 78.3273 81.0499 79.6458C80.8734 80.302 80.7467 80.9703 80.6064 81.6341C80.4858 82.2075 80.3696 82.7809 80.264 83.3574C80.1237 84.122 80.003 84.8911 79.8612 85.6542C79.6681 86.6867 79.4811 87.7207 79.2563 88.7457C79.024 89.7978 78.7675 90.8453 78.4869 91.8853C78.0374 93.5485 77.5109 95.1845 76.7129 96.7228C76.3161 97.4874 76.3237 97.4904 75.4758 97.4813C75.2978 97.4798 75.1198 97.4783 74.9418 97.4693C74.7789 97.4618 74.6944 97.3684 74.6823 97.2089C74.6778 97.1547 74.6748 97.099 74.6793 97.0449C74.7834 95.7821 74.7623 94.5042 75.0278 93.2595C75.2224 92.3519 75.4924 91.4624 75.7112 90.5593C76.1562 88.7276 76.6254 86.9004 77.0191 85.0582C77.3811 83.3634 77.6451 81.6491 77.977 79.9468C78.1581 79.0257 78.3874 78.1121 78.6031 77.1985C78.7947 76.3887 78.9681 75.573 79.2035 74.7753C79.4509 73.9384 79.7662 73.1227 80.0452 72.2949C80.1282 72.0495 80.1765 71.7937 80.261 71.5498C80.7422 70.1847 81.1917 68.8075 81.7243 67.4635C82.2673 66.0938 82.8994 64.7573 83.4832 63.4042C84.0987 61.9758 84.9948 60.7176 85.8622 59.4397C86.5682 58.4012 87.2531 57.3491 87.9651 56.3136C88.6696 55.2886 89.3696 54.2591 90.1254 53.2718C90.4 52.9136 90.7937 52.6171 91.1874 52.3838C92.4274 51.6523 93.7459 51.0864 95.1413 50.7101C96.1536 50.4377 97.1507 50.5536 98.1403 50.817C98.4707 50.9058 98.7951 51.0202 99.1164 51.136C99.7047 51.3513 100.2 51.7155 100.655 52.1369C100.746 52.2197 100.833 52.304 100.951 52.4124C101.204 52.2513 101.456 52.0978 101.702 51.9322C102.56 51.3573 103.511 51.0247 104.525 50.8727C105.051 50.7944 105.587 50.7026 106.113 50.7267C107.122 50.7733 108.131 50.8696 109.133 50.9991C109.973 51.1074 110.803 51.2866 111.636 51.4476C111.791 51.4777 111.951 51.5454 112.081 51.6357C113.067 52.3266 113.692 53.2793 113.947 54.4383C114.08 55.0433 114.108 55.6845 114.095 56.3076C114.075 57.2468 113.992 58.1875 113.911 59.1252C113.828 60.0764 113.709 61.0231 113.615 61.9728C113.543 62.7058 113.487 63.4403 113.42 64.1733C113.316 65.3006 113.138 66.4129 112.908 67.5237C112.714 68.4553 112.645 69.4141 112.533 70.3608C112.447 71.0923 112.381 71.8253 112.309 72.5582C112.268 72.9797 112.224 73.3996 112.196 73.821C112.134 74.7467 112.111 75.6753 112.016 76.598C111.938 77.3671 112.058 78.1211 112.063 78.8827C112.066 79.2831 112.064 79.6729 112.221 80.0462C112.31 80.2599 112.401 80.4751 112.518 80.6738C112.894 81.3059 113.541 81.5121 114.211 81.1991C115.145 80.7626 115.801 80.0492 116.192 79.1025C116.338 78.7503 116.422 78.3725 116.561 78.0173C116.821 77.3565 117.11 76.7063 117.367 76.0456C117.584 75.4857 117.764 74.9122 117.978 74.3508C118.326 73.4372 118.418 72.4664 118.633 71.5227C118.777 70.8876 118.826 70.2298 118.916 69.5811C118.928 69.4999 118.921 69.4126 118.948 69.3388C119.159 68.7759 119.081 68.7804 119.685 68.669C120.88 68.4493 122.087 68.5005 123.291 68.5095C123.372 68.5095 123.455 68.52 123.535 68.5336C124.084 68.6254 124.185 68.7022 124.195 69.2651C124.205 69.9469 124.163 70.6287 124.131 71.3105C124.113 71.7049 124.059 72.0992 124.044 72.4935C124.006 73.5035 123.976 74.5134 123.955 75.5233C123.943 76.1239 123.934 76.7274 123.955 77.3279C123.982 78.091 124.03 78.8541 124.093 79.6142C124.169 80.5112 124.244 81.4098 124.368 82.2993C124.51 83.3122 124.845 84.262 125.487 85.0808C125.554 85.165 125.64 85.2373 125.726 85.305C125.831 85.3893 125.949 85.4134 126.062 85.314C126.225 85.1711 126.397 85.0341 126.543 84.8745C127.148 84.2153 127.396 83.3785 127.608 82.5461C127.903 81.3977 128.158 80.2388 128.228 79.0438C128.268 78.38 128.405 77.7193 128.524 77.063C128.595 76.6747 128.66 76.6506 129.052 76.6732C129.132 76.6777 129.215 76.6747 129.292 76.6536C129.621 76.5648 129.95 76.4776 130.274 76.3722C131.004 76.1359 131.737 76.2322 132.47 76.3331C132.674 76.3602 132.879 76.3827 133.077 76.4294C133.377 76.5016 133.493 76.6567 133.474 76.9562C133.407 77.9631 133.336 78.97 133.261 79.9769C133.21 80.6708 133.167 81.3661 133.087 82.057C132.982 82.9646 132.845 83.8676 132.721 84.7737C132.68 85.0702 132.638 85.3682 132.609 85.6662C132.547 86.2909 132.493 86.9155 132.437 87.5416C132.374 88.2475 132.335 88.9579 132.24 89.6593C132.105 90.6451 131.959 91.6325 131.761 92.6078C131.511 93.8495 131.046 95.016 130.294 96.0485C129.933 96.5421 129.5 96.9335 128.871 97.0945C128.397 97.2164 127.948 97.4332 127.482 97.5867C126.596 97.8802 125.703 97.9058 124.825 97.5641C124.115 97.2872 123.519 96.8387 122.962 96.3179C122.042 95.457 121.358 94.423 120.696 93.3679C120.624 93.2475 120.526 93.1361 120.429 93.0082ZM98.9172 59.3554C98.6216 59.6128 98.3591 59.8265 98.1147 60.0568C97.8462 60.3097 97.5686 60.5595 97.3378 60.8455C96.0993 62.3837 95.1081 64.08 94.209 65.8319C93.761 66.7079 93.3205 67.5884 92.886 68.4704C92.3867 69.4818 91.8451 70.4722 91.4273 71.5242C91.0803 72.4002 90.7258 73.2732 90.3517 74.1371C89.9383 75.0929 89.6246 76.0787 89.356 77.0826C89.2504 77.4769 89.3892 77.8096 89.6623 78.091C89.875 78.3108 90.0228 78.3499 90.2793 78.1723C90.6474 77.9164 91.0154 77.6485 91.3307 77.3325C92.0216 76.6401 92.5511 75.8258 92.9645 74.9423C93.2013 74.4366 93.4065 73.9144 93.6177 73.3966C94.2045 71.9562 94.7929 70.5158 95.3691 69.0709C95.8036 67.9812 96.1747 66.8629 96.6589 65.7958C97.4555 64.0378 98.074 62.2151 98.6985 60.3955C98.8086 60.0794 98.9203 59.7558 98.9172 59.3554Z" fill="black"/>
<path d="M115.443 30.6907C115.92 30.2737 116.174 29.7725 116.431 29.2789C116.991 28.2042 117.341 27.0528 117.575 25.8728C117.67 25.3942 117.685 24.8945 117.682 24.4053C117.672 23.2178 117.647 22.0288 117.592 20.8427C117.537 19.6853 117.444 18.5294 117.355 17.375C117.287 16.4779 117.186 15.5839 117.125 14.6853C117.077 13.9599 117.103 13.9478 117.831 13.9674C118.871 13.9945 119.912 14.0201 120.951 14.0502C121.634 14.0697 122.318 14.0983 123.003 14.1239C123.295 14.136 123.359 14.1691 123.415 14.4731C123.549 15.1971 123.671 15.924 123.781 16.6525C123.914 17.5315 123.95 18.4165 123.968 19.3045C123.983 20.027 124.063 20.7464 124.09 21.4689C124.104 21.8496 124.05 22.2319 124.054 22.6127C124.062 23.3201 124.101 24.026 124.107 24.7319C124.11 25.1654 124.063 25.6004 124.056 26.0354C124.044 26.8105 124.053 27.5871 124.039 28.3623C124.027 29.0426 123.994 29.7229 123.977 30.4032C123.964 30.9601 123.965 31.517 123.952 32.0754C123.924 33.29 123.929 34.5076 123.854 35.7207C123.768 37.0798 123.766 38.454 123.377 39.777C123.057 40.8637 122.778 41.9699 122.227 42.9693C121.912 43.5398 121.521 44.0726 121.138 44.6024C120.981 44.8191 120.767 45.0027 120.553 45.1668C120.393 45.2887 120.198 45.4031 120.005 45.4377C119.373 45.5521 118.735 45.6289 118.098 45.7207C117.424 45.8185 116.798 45.5852 116.163 45.4332C114.905 45.1322 113.758 44.5843 112.772 43.749C112.274 43.3275 111.79 42.8655 111.393 42.3507C110.316 40.9525 109.551 39.3887 109.005 37.706C108.579 36.395 108.074 35.1097 107.603 33.8122C107.591 33.7776 107.557 33.752 107.523 33.7099C107.282 34.0817 107.048 34.4459 106.811 34.8071C106.286 35.6063 105.76 36.404 105.237 37.2048C104.773 37.9137 104.339 38.6421 103.849 39.3315C103.36 40.0208 102.838 40.6891 102.293 41.3363C101.367 42.438 100.307 43.4058 99.142 44.2502C98.5567 44.6746 97.9306 45.0479 97.3 45.4046C96.3964 45.9163 95.4687 46.3874 94.4881 46.7441C93.8922 46.9609 93.2707 47.0527 92.6432 47.1099C91.4725 47.2167 90.3019 47.3281 89.1312 47.426C88.3136 47.4937 87.496 47.5449 86.6768 47.599C86.1956 47.6306 85.7642 47.4967 85.3644 47.2182C83.9026 46.2038 82.6867 44.9711 81.8962 43.3607C81.4769 42.5073 81.2536 41.5861 81.1088 40.6545C81.0032 39.9681 80.97 39.2713 80.9247 38.5774C80.8855 37.9784 80.8463 37.3779 80.8584 36.7788C80.8734 36.0564 80.9519 35.3369 80.9821 34.6145C81.0092 33.9733 80.9896 33.3291 81.0198 32.6879C81.0816 31.2972 81.1616 29.908 81.2355 28.5188C81.237 28.4917 81.2415 28.4646 81.2415 28.4375C81.2295 26.5968 81.9174 24.9863 82.818 23.4225C83.4108 22.3945 84.1259 21.4689 84.942 20.6245C85.9075 19.6251 87.0178 18.8319 88.3061 18.2539C89.8855 17.545 91.5344 17.1266 93.2239 16.8376C94.639 16.5953 96.057 16.368 97.4811 16.1919C98.6215 16.0505 99.7711 16.0384 100.924 16.1483C101.541 16.207 102.142 16.3093 102.741 16.4584C102.817 16.4764 102.897 16.4779 103.01 16.49C102.996 16.4117 103.001 16.359 102.98 16.3184C102.316 15.1053 101.571 13.9433 100.715 12.8581C100.18 12.1778 99.5116 11.6315 98.7724 11.1709C97.7224 10.5192 96.6318 9.93521 95.4913 9.47766C94.3916 9.03516 93.233 8.72962 92.088 8.40452C91.0577 8.11253 89.9881 8.04028 88.9216 7.97406C88.4162 7.94245 87.9093 7.89429 87.4055 7.90934C86.6814 7.9289 85.9603 8.01168 85.2362 8.04179C84.5649 8.06888 83.8936 8.07189 83.2222 8.06286C82.7305 8.05684 82.2387 8.00717 81.7469 7.99663C81.406 7.98911 81.0635 8.01469 80.7226 8.02824C79.8748 8.06436 79.0255 8.1035 78.1822 7.95901C78.0374 7.93492 77.8971 7.86569 77.7613 7.80247C77.5531 7.70765 77.4701 7.54209 77.4732 7.3088C77.4837 6.67966 77.4732 6.05053 77.4777 5.4229C77.4807 5.07973 77.5275 5.02405 77.8443 4.92772C78.3557 4.77119 78.8595 4.58455 79.3785 4.46866C79.8431 4.36481 80.3243 4.29557 80.7995 4.29106C82.5811 4.27149 84.3642 4.26096 86.1458 4.29557C87.0736 4.31363 88.0013 4.41147 88.9261 4.5093C90.1088 4.63422 91.2945 4.75915 92.4667 4.94879C93.4925 5.11586 94.5032 5.37172 95.5184 5.59298C95.7583 5.64565 95.9921 5.73295 96.2335 5.77509C97.383 5.97527 98.4224 6.46142 99.4422 6.99273C100.171 7.37201 100.881 7.7814 101.598 8.18176C102.26 8.55202 102.725 9.11794 103.138 9.73654C103.419 10.1565 103.701 10.5764 104.007 10.9783C104.662 11.8392 105.23 12.7558 105.793 13.6769C106.507 14.8464 107.151 16.0475 107.64 17.3298C107.765 17.6594 107.985 17.9514 108.139 18.2705C108.721 19.4761 109.295 20.6847 109.871 21.8933C109.899 21.955 109.931 22.0167 109.949 22.0829C110.378 23.576 111.146 24.9201 111.833 26.2972C112.114 26.8586 112.413 27.4155 112.748 27.9453C112.986 28.3231 113.294 28.6588 113.582 29.0064C114.117 29.6506 114.852 30.0706 115.443 30.6907ZM101.268 19.2518C101.094 19.2353 100.976 19.2067 100.862 19.2142C100.399 19.2473 99.931 19.2639 99.4739 19.3376C98.6502 19.4686 97.8296 19.6236 97.0119 19.7922C95.6648 20.0676 94.3629 20.4755 93.1259 21.0881C92.0081 21.6419 90.9385 22.2786 89.8991 22.9649C89.6155 23.1531 89.3409 23.3623 89.0905 23.5941C87.9968 24.6055 87.0856 25.7614 86.437 27.107C86.176 27.6473 85.9286 28.1952 85.7234 28.7581C85.6344 29.0019 85.5846 29.3165 85.6601 29.5543C85.9241 30.3941 86.3163 31.1768 86.9951 31.7743C87.0781 31.8481 87.2124 31.9068 87.3195 31.9023C87.5216 31.8947 87.7283 31.8526 87.9229 31.7939C89.083 31.4522 90.1752 30.942 91.2613 30.4243C92.8076 29.6883 94.1457 28.6542 95.3812 27.4803C96.4175 26.4959 97.2623 25.3535 98.086 24.1946C98.6321 23.427 99.1737 22.6564 99.7273 21.8948C100.24 21.1874 100.767 20.4875 101.103 19.6718C101.151 19.5498 101.198 19.4264 101.268 19.2518Z" fill="black"/>
<path d="M12.0503 98.7532C10.8676 98.6749 9.38017 98.5756 7.89274 98.4762C7.44169 98.4461 6.99214 98.4235 6.54259 98.3844C5.76719 98.3167 4.9918 98.2399 4.2164 98.1632C3.64466 98.106 3.07292 98.0488 2.50269 97.9795C2.15421 97.9374 2.12555 97.8742 2.16025 97.5265C2.21456 96.9847 2.24925 96.4398 2.29602 95.8965C2.35485 95.2312 2.41821 94.566 2.48157 93.9007C2.52833 93.4115 2.5751 92.9239 2.6279 92.4362C2.72445 91.5286 2.83004 90.6211 2.92357 89.712C2.99598 89.0196 3.05331 88.3273 3.12421 87.6349C3.17249 87.1744 3.23434 86.7153 3.28714 86.2547C3.30826 86.0711 3.41536 85.9914 3.59035 85.9914C3.76836 85.9898 3.94788 85.9853 4.12438 85.9974C4.86055 86.0485 5.59974 86.0786 6.3329 86.1659C7.80675 86.3405 9.28513 86.3571 10.762 86.2999C11.9628 86.2547 13.1651 86.1855 14.3509 85.9552C15.4249 85.746 16.5005 85.5504 17.5746 85.3442C18.7287 85.1214 19.8872 84.9122 21.0367 84.6638C21.8649 84.4847 22.6765 84.2259 23.5062 84.0467C24.4928 83.833 25.4055 83.4297 26.3152 83.0218C27.3138 82.5748 28.2914 82.0781 29.2689 81.5874C29.8588 81.2909 29.8874 81.1163 29.4922 80.591C29.0834 80.0477 28.6806 79.4968 28.2552 78.9655C27.7453 78.3273 27.0544 77.933 26.3061 77.6425C25.315 77.2557 24.2756 77.1067 23.2151 77.0555C21.6522 76.9788 20.1316 77.2015 18.6261 77.5989C17.7104 77.8397 16.7706 77.9616 15.8247 77.9556C15.1142 77.9511 14.4368 78.1166 13.761 78.2747C12.5361 78.5621 11.3172 78.8782 10.062 79.0092C9.99415 79.0167 9.92476 79.0197 9.85688 79.0212C9.03773 79.0498 8.21708 79.0754 7.39794 79.11C6.96046 79.1281 6.52298 79.1973 6.08851 79.1792C5.40665 79.1506 4.71573 79.122 4.04895 78.9941C3.12421 78.818 2.27942 78.4192 1.58096 77.7674C1.29132 77.4965 1.00621 77.2196 0.740701 76.9231C0.257964 76.3827 -0.0120662 75.7386 0.00151079 75.0161C0.0181048 74.116 0.0920239 73.219 0.14784 72.3205C0.202148 71.449 0.276067 70.579 0.319815 69.7076C0.396751 68.1934 0.437482 66.6763 0.743718 65.1877C0.874962 64.5481 1.07258 63.9204 1.25512 63.2928C1.54023 62.31 1.83138 61.3286 2.13008 60.3503C2.32166 59.7242 2.52079 59.0981 2.73953 58.4795C3.07443 57.5313 3.78345 56.8916 4.58298 56.3437C5.99498 55.3774 7.60159 54.8702 9.23988 54.4669C9.84782 54.3163 10.4799 54.2607 11.1014 54.1673C11.7908 54.0635 12.4802 53.9657 13.1712 53.8663C14.8487 53.6255 16.5247 53.3651 18.2067 53.1559C18.7845 53.0837 19.3773 53.1394 19.9627 53.1424C20.2885 53.1439 20.6144 53.1454 20.9402 53.1619C21.7593 53.2026 22.5785 53.2552 23.3976 53.2974C23.6405 53.3109 23.8849 53.3109 24.1293 53.3124C25.3301 53.323 26.4781 53.6707 27.6472 53.8754C28.3743 54.0033 29.1015 54.1403 29.818 54.3209C30.1695 54.4097 30.5105 54.5767 30.8272 54.7604C31.3221 55.0478 31.8138 55.3489 32.1985 55.7899C32.7582 56.431 32.9996 57.17 32.9241 58.0129C32.8638 58.7052 32.808 59.3991 32.7325 60.0914C32.6511 60.8365 32.5545 61.5815 32.458 62.325C32.3946 62.8112 32.3267 63.2988 32.2513 63.7835C32.1638 64.3419 31.8938 64.7919 31.3839 65.0568C31.0098 65.251 30.6176 65.4135 30.2253 65.57C29.8829 65.707 29.5284 65.8169 29.1799 65.9403C28.7756 66.0848 28.3623 66.1616 27.9308 66.1465C26.822 66.1104 25.7148 66.0833 24.606 66.0487C23.9648 66.0291 23.3252 65.996 22.6841 65.9794C21.5708 65.9508 20.4756 66.133 19.3789 66.2865C18.5265 66.4054 17.6727 66.5152 16.8203 66.6326C16.2788 66.7079 15.7387 66.7952 15.1956 66.8674C14.5183 66.9578 13.8334 67.0029 13.1636 67.1323C12.4546 67.2708 11.7516 67.459 11.0637 67.6772C10.4528 67.8698 9.85688 68.1167 9.26552 68.3695C8.21105 68.8211 7.35872 69.53 6.66478 70.4406C6.49281 70.6648 6.262 70.8439 6.06589 71.0501C5.65254 71.4866 5.24071 71.9246 4.83491 72.3686C4.73233 72.48 4.64936 72.6215 4.74892 72.778C5.20752 73.505 5.73551 74.1732 6.59237 74.4427C7.05851 74.5887 7.55634 74.6368 8.04058 74.7301C9.2972 74.9694 10.5644 75.0598 11.8406 74.9604C12.3445 74.9213 12.8453 74.852 13.3507 74.825C14.1427 74.7843 14.9362 74.7407 15.7297 74.7497C16.8686 74.7632 17.997 74.688 19.1239 74.5254C19.7575 74.4336 20.4062 74.4396 21.0488 74.4095C21.5783 74.3855 22.1093 74.3508 22.6388 74.3614C24.2409 74.396 25.8445 74.4562 27.3681 75.0357C27.789 75.1952 28.1812 75.4285 28.6006 75.5926C29.6385 75.9989 30.5074 76.6612 31.3341 77.3791C31.8998 77.8698 32.4218 78.4086 32.8231 79.0543C33.1414 79.5675 33.2666 80.1335 33.3933 80.7099C33.5969 81.6311 33.4144 82.5296 33.2696 83.4312C33.0463 84.8189 32.8216 86.2066 32.5666 87.5883C32.3177 88.9293 32.0627 90.2719 31.7444 91.5979C31.5725 92.3098 31.2889 93.0006 31.0007 93.6779C30.8906 93.9383 30.6598 94.1791 30.4245 94.3492C29.6083 94.9407 28.6776 95.314 27.7332 95.6451C26.8417 95.9582 25.938 96.2351 25.048 96.5512C23.5349 97.09 21.9947 97.5024 20.4032 97.7387C19.4845 97.8742 18.5808 98.1 17.6636 98.249C16.7479 98.398 15.8262 98.5304 14.9015 98.6162C14.0582 98.6975 13.2074 98.702 12.0503 98.7532Z" fill="black"/>
<path d="M135.948 10.4816C136.141 10.4981 136.248 10.5117 136.355 10.5147C137.655 10.5448 138.957 10.5523 140.256 10.608C141.389 10.6562 142.522 10.742 143.652 10.8473C144.098 10.8895 144.537 11.0204 144.976 11.1227C146.136 11.3937 147.292 11.6811 148.454 11.946C149.363 12.1537 150.285 12.2726 151.223 12.241C151.836 12.2215 152.451 12.2365 153.086 12.2365C153.133 11.9325 153.178 11.6811 153.208 11.4268C153.303 10.6411 153.394 9.85544 153.485 9.06978C153.56 8.41957 153.629 7.76786 153.708 7.11765C153.788 6.44035 153.872 5.76305 153.957 5.08726C154.095 3.98853 154.31 2.90335 154.625 1.84074C154.768 1.3576 154.972 0.892522 155.162 0.424433C155.281 0.133947 155.492 -0.021079 155.835 -7.52044e-06C156.503 0.0421355 157.173 0.063207 157.843 0.0887939C158.067 0.0963194 158.215 0.204687 158.255 0.416908C158.318 0.764588 158.392 1.11678 158.398 1.46747C158.419 2.75284 158.408 4.0382 158.422 5.32206C158.439 6.96112 158.475 8.60018 158.487 10.2392C158.491 10.7976 158.445 11.3575 158.424 11.9159C158.419 12.0499 158.424 12.1854 158.424 12.3359C158.82 12.4277 159.193 12.4412 159.547 12.3524C160.083 12.217 160.608 12.1372 161.166 12.2124C161.598 12.2711 162.043 12.2275 162.48 12.2501C162.902 12.2726 162.97 12.381 162.919 12.7964C162.809 13.6754 162.712 14.5559 162.604 15.4364C162.454 16.654 162.3 17.8732 162.145 19.0908C162.1 19.44 162.151 19.8057 161.967 20.1308C162.029 21.1724 161.763 22.1853 161.693 23.2163C161.643 23.9372 161.534 24.6537 161.459 25.3716C161.439 25.5597 161.371 25.6862 161.163 25.6922C160.096 25.7208 159.028 25.7494 157.962 25.772C157.841 25.775 157.721 25.7404 157.552 25.7163C157.518 25.8517 157.47 25.9767 157.458 26.1046C157.389 26.8662 157.333 27.6278 157.265 28.3878C157.209 29.0125 157.144 29.6371 157.082 30.2617C157.034 30.7644 156.975 31.2656 156.941 31.7683C156.858 32.9664 156.755 34.1629 156.719 35.3625C156.687 36.4101 156.748 37.4606 156.745 38.5082C156.743 39.1449 156.707 39.783 156.668 40.4197C156.637 40.8953 156.574 41.3694 156.53 41.845C156.425 42.9994 156.321 44.1539 156.22 45.3083C156.18 45.7568 156.156 46.2068 156.118 46.6553C156.014 47.8925 155.904 49.1282 155.802 50.3654C155.738 51.1135 155.684 51.8615 155.624 52.6081C155.595 52.9618 155.559 52.9994 155.201 53.0084C153.777 53.0415 152.355 53.0731 150.931 53.1002C150.469 53.1093 150.451 53.0822 150.434 52.6156C150.41 51.9067 150.359 51.1963 150.363 50.4874C150.369 49.2878 150.403 48.0882 150.434 46.8901C150.455 46.0985 150.484 45.3068 150.523 44.5166C150.567 43.6165 150.624 42.718 150.679 41.8194C150.751 40.6078 150.825 39.3962 150.897 38.1846C150.903 38.0762 150.9 37.9664 150.906 37.8565C150.988 36.3438 151.059 34.8297 151.155 33.3186C151.225 32.2153 151.317 31.1151 151.419 30.0149C151.502 29.1329 151.62 28.2539 151.712 27.3719C151.756 26.955 151.775 26.5366 151.807 26.1016C150.365 26.1016 148.944 26.1407 147.527 26.0926C145.503 26.0233 143.484 25.8954 141.516 25.334C140.345 24.9998 139.144 24.7741 137.968 24.4625C137.402 24.312 136.845 24.1178 136.334 23.8078C135.925 23.5595 135.483 23.3653 135.055 23.1531C134.985 23.1185 134.904 23.1064 134.812 23.0793C134.782 23.144 134.744 23.1892 134.741 23.2359C134.705 23.7401 134.676 24.2443 134.638 24.747C134.569 25.6711 134.499 26.5953 134.419 27.5194C134.341 28.4164 134.252 29.312 134.162 30.2075C134.066 31.1437 133.959 32.0784 133.861 33.0145C133.818 33.4345 133.783 33.8574 133.75 34.2788C133.676 35.2587 133.554 36.237 133.545 37.2183C133.531 38.752 133.351 40.2632 133.115 41.7713C133.054 42.1611 133.038 42.5584 133.003 42.9528C132.973 43.2869 132.929 43.3486 132.611 43.3396C131.831 43.3185 131.051 43.2779 130.272 43.2478C130.103 43.2418 130.024 43.156 130.027 42.9889C130.031 42.7014 130.024 42.414 130.046 42.128C130.108 41.3528 130.185 40.5807 130.253 39.8056C130.289 39.3977 130.318 38.9898 130.349 38.5819C130.432 37.4938 130.503 36.4056 130.598 35.3189C130.671 34.5046 130.767 33.6903 130.864 32.8791C130.906 32.5269 130.963 32.1762 131.031 31.8285C131.345 30.2045 131.49 28.5594 131.657 26.9174C131.751 26.0083 131.783 25.0932 131.849 24.1811C131.896 23.5414 131.962 22.9032 132.003 22.2636C132.033 21.7864 132.019 21.7894 131.598 21.5923C130.484 21.0685 129.366 20.5553 128.26 20.0134C127.064 19.4264 126.583 18.4346 126.67 17.1296C126.714 16.4764 126.73 15.8202 126.745 15.1655C126.758 14.6191 126.759 14.0713 126.75 13.5249C126.744 13.2194 126.841 12.962 127.034 12.7347C127.42 12.2817 127.874 11.9174 128.421 11.6706C129.443 11.2085 130.526 10.9873 131.627 10.8323C132.182 10.754 132.736 10.6652 133.293 10.5929C133.496 10.5674 133.525 10.4199 133.551 10.2754C133.614 9.91264 133.664 9.5469 133.718 9.18266C133.854 8.27809 134.002 7.37502 134.124 6.46895C134.251 5.52224 134.355 4.57251 134.468 3.62429C134.474 3.57011 134.474 3.51442 134.483 3.46174C134.617 2.63845 134.736 2.53911 135.57 2.54965C135.748 2.55266 135.928 2.54965 136.105 2.56169C136.397 2.58276 136.444 2.62641 136.453 2.90184C136.461 3.12008 136.458 3.33983 136.442 3.55807C136.399 4.1556 136.338 4.75313 136.301 5.35216C136.209 6.79556 136.129 8.23896 136.04 9.68236C136.017 9.93371 135.979 10.1866 135.948 10.4816Z" fill="black"/>
<path d="M9.23838 38.0612C9.39225 38.0612 9.525 38.0732 9.65474 38.0597C11.2915 37.8941 12.8921 37.5299 14.5032 37.2168C15.2394 37.0738 15.9907 37.0046 16.7374 36.9203C17.4298 36.842 18.1268 36.8014 18.8207 36.7216C20.1105 36.5741 21.4003 36.4191 22.6871 36.2505C23.4459 36.1497 24.2002 36.0157 24.956 35.8953C25.9546 35.7358 26.9533 35.5717 27.952 35.4152C28.2175 35.373 28.3004 35.4588 28.2808 35.7267C28.2009 36.8556 28.1209 37.9844 28.0364 39.1132C27.9867 39.7785 27.9354 40.4453 27.8735 41.1105C27.8539 41.3182 27.7815 41.5214 27.7589 41.7291C27.7362 41.9278 27.7574 42.1325 27.7423 42.3327C27.6864 43.025 27.6246 43.7189 27.5612 44.4112C27.4783 45.3203 27.3908 46.2294 27.3108 47.14C27.2957 47.3101 27.2082 47.4064 27.0679 47.4892C25.6801 48.3155 24.2816 49.1222 22.8349 49.8462C21.5119 50.5084 20.1271 50.9419 18.6804 51.2218C17.472 51.4551 16.2743 51.7547 15.0644 51.9774C14.1517 52.146 13.2225 52.2227 12.3068 52.3748C11.5902 52.4937 10.8902 52.3717 10.1842 52.3055C9.40733 52.2318 8.62892 52.1821 7.85353 52.1068C7.20183 52.0436 6.55014 51.9699 5.90146 51.8736C5.73854 51.8495 5.57863 51.7396 5.43683 51.6403C4.96013 51.3016 4.73988 50.7824 4.49398 50.2812C4.45778 50.2074 4.42912 50.1276 4.37933 50.0629C3.97353 49.5226 3.86039 48.9025 3.8619 48.2477C3.86492 47.4004 3.84832 46.553 3.87246 45.7056C3.90112 44.7107 3.96901 43.7159 4.00672 42.721C4.01577 42.4922 3.94789 42.2589 3.95694 42.0301C4.00521 40.653 3.97806 39.2653 4.14249 37.9001C4.3205 36.4281 4.57997 34.9591 5.01896 33.5308C5.74759 31.1542 6.437 28.7641 7.18976 26.3936C7.67401 24.8704 8.24575 23.3758 8.76922 21.8647C8.93968 21.374 9.07545 20.8713 9.24441 20.3807C9.71508 19.0125 10.1692 17.6369 10.6806 16.2823C11.1392 15.0691 11.6868 13.8891 12.1529 12.6775C12.6085 11.493 13.0022 10.2844 13.4367 9.09085C13.7821 8.14112 14.1563 7.20043 14.5062 6.25221C14.9045 5.17606 15.2846 4.09238 15.6829 3.01623C15.7825 2.74832 15.9016 2.48342 16.0419 2.23508C16.232 1.89944 16.6997 1.80612 16.9953 2.04092C17.0647 2.09661 17.1085 2.23207 17.104 2.32689C17.0874 2.74982 17.0738 3.17426 17.0119 3.59118C16.8385 4.76516 16.6574 5.93764 16.4493 7.10561C16.2079 8.46321 15.9394 9.8148 15.6723 11.1679C15.4551 12.2651 15.2439 13.3654 14.9875 14.4551C14.6299 15.9707 14.2287 17.4758 13.8545 18.9869C13.4865 20.4725 13.1319 21.9595 12.7624 23.4451C12.2585 25.474 11.7486 27.4998 11.2402 29.5272C10.842 31.1166 10.4286 32.703 10.0455 34.2969C9.76788 35.4528 9.52802 36.6163 9.27458 37.7767C9.25648 37.8535 9.25346 37.9347 9.23838 38.0612Z" fill="black"/>
<path d="M137.637 67.319C137.476 67.2859 137.307 67.2422 137.135 67.2151C136.462 67.1128 136.375 66.8404 136.387 66.2579C136.405 65.4406 136.474 64.6233 136.536 63.8076C136.598 62.9918 136.679 62.1775 136.75 61.3633C136.786 60.9418 136.82 60.5204 136.847 60.099C136.91 59.0785 136.96 58.055 137.031 57.0346C137.094 56.124 137.164 55.2134 137.263 54.3058C137.328 53.7203 137.515 53.5412 138.105 53.5156C138.663 53.4916 139.226 53.5307 139.787 53.5548C140.306 53.5773 140.825 53.618 141.344 53.6466C141.905 53.6767 142.466 53.7369 143.026 53.7233C144.251 53.6947 145.42 53.9732 146.575 54.3164C147.637 54.6324 148.702 54.9515 149.734 55.3504C150.585 55.68 151.427 56.0713 152.207 56.5424C153.266 57.1836 154.301 57.8744 155.188 58.7594C155.681 59.2501 156.217 59.6986 156.732 60.1682C157.582 60.9433 158.175 61.9036 158.725 62.8985C159.339 64.0077 159.789 65.1757 160.095 66.3994C160.223 66.9141 160.303 67.4439 160.362 67.9707C160.425 68.5396 160.486 69.1161 160.466 69.6865C160.421 71.0366 160.345 72.3882 160.056 73.7127C159.826 74.7632 159.556 75.8063 159.181 76.8177C158.84 77.7388 158.52 78.6705 158.122 79.5675C157.796 80.3005 157.39 81.0019 156.978 81.6943C156.497 82.504 156.011 83.3168 155.452 84.0723C154.909 84.8053 154.278 85.4751 153.672 86.1599C153.002 86.917 152.338 87.6816 151.628 88.401C151.258 88.7758 150.817 89.0979 150.366 89.3733C149.743 89.7541 149.161 90.174 148.639 90.6843C148.131 91.181 147.628 91.6867 147.088 92.1457C146.823 92.3715 146.482 92.5115 146.164 92.6695C145.429 93.0337 144.687 93.3844 143.949 93.7426C143.398 94.0106 142.799 94.0963 142.205 94.1836C141.502 94.2875 140.798 94.3883 140.09 94.4561C139.715 94.4922 139.328 94.4877 138.951 94.45C138.094 94.3643 137.239 94.2634 136.387 94.134C136.082 94.0873 135.789 93.9473 135.495 93.842C135.305 93.7742 135.116 93.696 134.934 93.6102C134.744 93.5214 134.578 93.401 134.531 93.1782C134.502 93.0458 134.48 92.9103 134.472 92.7749C134.415 91.643 134.444 90.5097 134.49 89.3808C134.516 88.7698 134.641 88.1632 134.726 87.5551C134.91 86.2306 135.082 84.9047 135.291 83.5847C135.435 82.6816 135.631 81.7876 135.809 80.8905C135.997 79.9393 136.145 78.9836 136.198 78.0128C136.221 77.6184 136.293 77.2271 136.349 76.8358C136.516 75.6753 136.688 74.5149 136.856 73.3545C137.041 72.0721 137.228 70.7898 137.406 69.5059C137.5 68.8316 137.58 68.1543 137.664 67.477C137.669 67.4364 137.652 67.3957 137.637 67.319ZM136.83 87.2586C137.384 87.206 137.847 87.1789 138.304 87.1141C139.401 86.9591 140.505 86.9381 141.609 86.8929C141.704 86.8884 141.799 86.911 141.896 86.914C142.344 86.923 142.793 86.9591 143.238 86.9305C143.988 86.8824 144.736 86.8131 145.482 86.7153C146.266 86.6114 147.049 86.5016 147.764 86.0997C148.227 85.8393 148.739 85.6677 149.221 85.439C149.665 85.2282 150.134 85.0461 150.528 84.7617C150.967 84.4441 151.341 84.0332 151.732 83.6494C152.063 83.3243 152.374 82.9796 152.7 82.6485C153.094 82.2496 153.509 81.8719 153.886 81.4595C154.617 80.6587 155.204 79.7482 155.758 78.821C156.352 77.8231 156.92 76.8042 157.295 75.6994C157.621 74.7437 157.887 73.7654 158.199 72.8051C158.449 72.039 158.443 71.2819 158.25 70.5068C158.075 69.8024 157.695 69.2696 157.063 68.9114C156.659 68.6826 156.262 68.4373 155.851 68.2175C155.551 68.0565 155.247 67.8834 154.922 67.7946C154.384 67.6471 153.83 67.5417 153.276 67.4605C152.668 67.3717 152.05 67.3476 151.44 67.2633C150.585 67.1474 149.731 67.036 148.867 67.0571C148.114 67.0767 147.361 67.1052 146.609 67.1083C146.103 67.1098 145.596 67.0526 145.091 67.0601C143.694 67.0782 142.299 67.1143 140.902 67.1459C140.864 67.1474 140.826 67.17 140.777 67.1865C140.386 68.2687 140.232 69.4081 140.01 70.5294C139.856 71.3045 139.793 72.0947 139.53 72.8517C139.393 73.2476 139.33 73.6735 139.26 74.0905C139.063 75.275 138.874 76.461 138.559 77.6229C138.316 78.517 138.109 79.414 137.984 80.3412C137.741 82.1383 137.385 83.9203 137.079 85.7084C136.995 86.2051 136.919 86.7017 136.83 87.2586Z" fill="black"/>
<path d="M172.839 53.18C172.824 53.3591 172.808 53.466 172.806 53.5713C172.776 55.388 172.744 57.2046 172.719 59.0228C172.71 59.6354 172.722 60.248 172.714 60.8605C172.696 62.4996 172.666 64.1387 172.655 65.7777C172.651 66.3888 172.707 66.9999 172.705 67.611C172.702 68.3951 172.666 69.1778 172.652 69.9619C172.648 70.1907 172.676 70.4195 172.684 70.6483C172.697 71.0577 172.722 71.467 172.714 71.8764C172.696 72.9375 172.673 73.9986 172.636 75.0597C172.599 76.0652 172.538 77.0706 172.497 78.0775C172.476 78.5922 172.482 79.1085 172.462 79.6247C172.45 79.9378 172.409 80.2494 172.387 80.5624C172.332 81.2834 172.289 82.0043 172.225 82.7238C172.201 82.9917 172.121 83.2566 172.096 83.5245C172.07 83.7879 172.088 84.0573 172.073 84.3222C172.017 85.3441 171.961 86.3661 171.895 87.3866C171.862 87.8893 171.771 88.3905 171.77 88.8932C171.768 89.6834 171.82 90.4751 171.851 91.2652C171.863 91.5512 171.883 91.8372 171.901 92.1217C171.921 92.4347 171.946 92.7478 171.963 93.0608C171.97 93.1963 171.964 93.3333 171.957 93.4687C171.952 93.55 171.921 93.6298 171.919 93.711C171.912 94.131 171.925 94.5509 171.901 94.9708C171.856 95.8152 171.789 96.658 171.735 97.5009C171.723 97.6951 171.629 97.8004 171.43 97.8155C171.157 97.8366 170.886 97.8652 170.614 97.8907C169.81 97.9645 169.006 98.0292 168.204 98.112C167.401 98.1948 166.6 98.2851 165.8 98.3859C164.865 98.5018 163.93 98.6297 162.994 98.7562C162.427 98.8329 161.862 98.9157 161.246 99.0015C161.201 98.6237 161.136 98.2791 161.122 97.9329C161.091 97.1397 161.139 96.351 161.258 95.5653C161.323 95.1349 161.309 94.6939 161.367 94.2619C161.468 93.5049 161.602 92.7523 161.711 91.9967C161.8 91.3766 161.866 90.752 161.951 90.1304C162.037 89.4952 162.138 88.8616 162.222 88.2264C162.275 87.8351 162.329 87.4423 162.349 87.0479C162.408 85.8484 162.515 84.6578 162.729 83.4718C162.928 82.3731 163.031 81.2578 163.188 80.1515C163.332 79.1235 163.394 78.0895 163.444 77.0525C163.482 76.2789 163.624 75.5098 163.717 74.7392C163.752 74.4547 163.777 74.1702 163.806 73.8843C163.871 73.2596 163.936 72.6365 164.002 72.0119C164.075 71.3211 164.149 70.6287 164.221 69.9379C164.254 69.6128 164.283 69.2861 164.317 68.961C164.432 67.8789 164.529 66.7937 164.669 65.713C164.848 64.3328 165.046 62.9557 165.269 61.5815C165.571 59.7227 165.9 57.8684 166.229 56.0141C166.312 55.5445 166.44 55.0824 166.547 54.6159C166.574 54.4985 166.603 54.3811 166.639 54.2305C166.531 54.2305 166.454 54.22 166.381 54.2321C165.345 54.4172 164.31 54.6189 163.271 54.7889C162.841 54.8597 162.4 54.8672 161.963 54.8973C161.581 54.9244 161.198 54.9635 160.816 54.962C160.421 54.9605 160.024 54.9184 159.629 54.8868C159.49 54.8762 159.406 54.7889 159.395 54.646C159.389 54.5647 159.388 54.4819 159.388 54.4006C159.389 53.5397 159.391 52.6773 159.397 51.8164C159.4 51.428 159.424 51.3934 159.802 51.3513C160.766 51.2414 161.73 51.1421 162.694 51.0352C163.373 50.9599 164.05 50.8666 164.731 50.8079C165.126 50.7733 165.526 50.7869 165.923 50.7838C166.265 50.7808 166.607 50.7854 166.951 50.7838C167.354 50.7823 167.36 50.7823 167.448 50.4015C167.564 49.8958 167.671 49.3886 167.781 48.8814C167.796 48.8152 167.808 48.7474 167.823 48.6812C167.971 48.0385 167.979 48.037 168.649 48.0927C169.385 48.1529 170.121 48.1951 170.857 48.2568C171.388 48.3019 171.919 48.3591 172.449 48.4193C172.682 48.4464 172.779 48.5518 172.802 48.8438C172.826 49.1568 172.82 49.4714 172.824 49.786C172.827 49.9876 172.824 50.1908 172.824 50.4332C173.283 50.4798 173.701 50.4467 174.12 50.4286C175.268 50.3775 176.418 50.2857 177.563 50.4587C177.973 50.5205 177.997 50.5611 177.999 50.9554C178.002 51.4205 178.003 51.8856 177.994 52.3507C177.989 52.6592 177.913 52.7405 177.614 52.7706C177.259 52.8052 176.905 52.8263 176.55 52.8549C175.909 52.9045 175.27 52.9512 174.63 53.0069C174.043 53.0566 173.461 53.1183 172.839 53.18Z" fill="black"/>
<path d="M62.9413 66.3873C66.067 66.431 69.072 66.9276 72.1389 67.319C72.2309 67.0059 72.3215 66.6823 72.4195 66.3617C72.688 65.4737 72.9581 64.5857 73.2311 63.6977C73.3925 63.1754 73.5509 62.6516 73.732 62.1369C73.8315 61.8539 73.9597 61.58 74.1 61.3151C74.2705 60.9945 74.4259 60.9328 74.7729 60.9915C74.895 61.0126 75.0157 61.0351 75.1364 61.0592C75.5814 61.145 75.687 61.2444 75.7398 61.6974C75.8304 62.459 75.7896 63.2206 75.7172 63.9821C75.6478 64.7016 75.5875 65.4225 75.4985 66.139C75.4004 66.9246 75.2662 67.7043 75.1636 68.4884C75.0746 69.1642 75.0097 69.843 74.9343 70.5203C74.8966 70.859 74.8694 71.1991 74.8257 71.5378C74.6718 72.7283 74.5224 73.9189 74.352 75.1064C74.2192 76.023 74.0699 76.9396 73.9039 77.8502C73.7425 78.7337 73.569 79.6172 73.3699 80.4932C73.2311 81.1027 73.032 81.6988 72.8766 82.3053C72.6805 83.0714 72.4799 83.8375 72.323 84.6112C72.0605 85.9086 71.8297 87.212 71.5928 88.5139C71.4902 89.0768 71.4118 89.6457 71.3107 90.2086C71.2851 90.3531 71.2368 90.5082 71.1538 90.6241C71.0935 90.7083 70.9547 90.7881 70.8536 90.7851C70.1974 90.764 69.5427 90.7219 68.8865 90.6797C68.5576 90.6587 68.5124 90.6075 68.5109 90.2779C68.5109 90.1153 68.5471 89.9528 68.5591 89.7902C68.627 88.851 68.6828 87.9103 68.7598 86.9727C68.8231 86.199 68.8307 85.4224 68.9725 84.6518C69.1143 83.8887 69.1369 83.106 69.2561 82.3384C69.4597 81.017 69.6936 79.7015 69.9214 78.3845C70.0119 77.8638 70.122 77.346 70.2276 76.8027C70.1507 76.7741 70.0918 76.7364 70.0315 76.7334C69.3888 76.7003 68.7462 76.6702 68.1035 76.6416C66.5829 76.5739 65.0729 76.4143 63.596 76.0426C62.6441 75.8033 61.7073 75.5007 60.7343 75.2193C60.7071 75.2825 60.6543 75.3623 60.6377 75.4496C60.4899 76.2277 60.3556 77.0073 60.2018 77.784C59.98 78.9083 59.7371 80.0266 59.5169 81.1509C59.1714 82.9164 58.8214 84.6804 58.5016 86.4504C58.2904 87.6184 58.1426 88.7969 57.9389 89.9663C57.7564 91.0139 57.5588 92.0584 57.3219 93.0939C57.1484 93.851 56.9041 94.5915 56.5209 95.2764C56.2795 95.7068 55.931 95.9506 55.4242 95.922C55.1919 95.9085 54.9626 95.8679 54.7302 95.8543C54.5221 95.8423 54.4315 95.7399 54.4496 95.5382C54.4813 95.171 54.5386 94.8053 54.5462 94.438C54.5598 93.687 54.8102 92.9946 55.0289 92.2917C55.1164 92.0088 55.13 91.7017 55.1737 91.4052C55.2748 90.7174 55.3849 90.0295 55.474 89.3402C55.578 88.529 55.6686 87.7147 55.7591 86.9019C55.8662 85.9402 55.9642 84.9769 56.0713 84.0151C56.1558 83.2566 56.2207 82.495 56.3444 81.7424C56.5827 80.2885 56.8467 78.8391 57.1183 77.3912C57.3446 76.1841 57.5889 74.98 57.8424 73.7774C57.8891 73.5561 57.8499 73.4327 57.6629 73.3003C56.99 72.8247 56.4002 72.2572 55.8707 71.6251C55.4076 71.0727 55.1707 70.427 55.0259 69.7392C54.9776 69.5134 54.9399 69.2816 54.9309 69.0513C54.9188 68.7548 54.9218 68.4553 54.955 68.1618C54.9671 68.0565 55.0636 67.9361 55.1556 67.8698C56.0457 67.2407 56.9704 66.6913 58.1154 66.6959C58.4141 66.6974 58.7128 66.6838 59.0115 66.6823C59.3494 66.6808 59.455 66.5935 59.5576 66.2624C60.1987 64.2154 60.8414 62.1685 61.4931 60.1261C61.6138 59.7498 61.7691 59.3825 61.9336 59.0228C62.092 58.6751 62.1614 58.6616 62.5415 58.7188C63.0424 58.794 63.5447 58.8557 64.0455 58.9175C64.3608 58.9566 64.4393 59.0243 64.4046 59.3329C64.2869 60.3759 64.1104 61.4144 64.0471 62.4605C63.9973 63.2898 63.6624 64.0168 63.4195 64.7814C63.2581 65.2871 63.1148 65.8003 62.9413 66.3873Z" fill="black"/>
<path d="M52.9381 74.56C52.8536 75.2072 52.7842 75.7867 52.7028 76.3662C52.5504 77.4453 52.3935 78.5245 52.2336 79.6022C52.0888 80.573 51.9349 81.5422 51.7856 82.513C51.7132 82.9841 51.6377 83.4567 51.5819 83.9293C51.5502 84.1927 51.4054 84.3493 51.1837 84.4576C50.5712 84.7572 49.9813 85.0988 49.3055 85.2659C48.6312 85.4329 47.9719 85.6647 47.3052 85.8619C47.2026 85.892 47.0894 85.8995 46.9808 85.904C46.0651 85.9417 45.151 85.9733 44.2353 85.901C43.6771 85.8574 43.1189 85.7987 42.5623 85.7385C41.8563 85.6632 41.1412 85.6241 40.4458 85.4916C38.9689 85.2117 37.7666 84.5073 37.0138 83.1452C36.5447 82.2948 36.3199 81.3692 36.1132 80.436C35.9624 79.7572 35.8115 79.0784 35.6863 78.3951C35.5445 77.6184 35.4268 76.8418 35.5038 76.0426C35.5898 75.1606 35.6275 74.2741 35.6893 73.3906C35.7693 72.2617 35.8356 71.1314 35.9443 70.0041C36.0861 68.517 36.3878 67.0721 37.0289 65.701C37.2748 65.1742 37.5765 64.7001 37.9144 64.2365C38.3579 63.6315 38.7532 62.9873 39.2314 62.4108C39.6568 61.8991 40.1411 61.428 40.6494 60.9975C41.1065 60.6107 41.639 60.3172 42.1248 59.962C42.6347 59.5903 43.2276 59.5075 43.8234 59.4111C44.3348 59.3284 44.8508 59.2546 45.3531 59.1297C46.2145 58.9145 47.0789 58.8377 47.9584 58.9566C48.6086 59.0454 49.2572 59.1417 49.9059 59.2396C50.013 59.2561 50.1307 59.2757 50.2182 59.3314C50.2981 59.3825 50.3992 59.4924 50.3932 59.5677C50.3585 59.9605 50.3042 60.3518 50.2333 60.7386C50.2091 60.8726 50.1624 60.9975 49.9572 61.0367C49.7732 61.0728 49.6148 61.2444 49.4428 61.3512C48.506 61.9397 47.5511 62.5026 46.6354 63.1197C45.5145 63.8753 44.3484 64.5707 43.3316 65.4722C42.2108 66.4656 41.2121 67.5643 40.4548 68.8677C40.221 69.2696 39.9736 69.6624 39.7277 70.0568C39.5633 70.3187 39.5633 70.573 39.6478 70.8755C39.8167 71.4806 39.9646 72.0841 40.2361 72.6591C40.5846 73.3951 41.096 73.9445 41.8125 74.3237C42.769 74.831 43.7631 75.1997 44.8673 75.132C45.4542 75.0959 46.0365 75.0086 46.6218 74.9514C47.4108 74.8731 48.1997 74.7979 48.9887 74.7286C49.8606 74.6534 50.7326 74.5781 51.606 74.5179C52.0375 74.4908 52.475 74.4396 52.9381 74.56Z" fill="black"/>
<path d="M130.683 58.3591C130.763 58.8964 130.817 59.3539 130.9 59.807C131.057 60.6649 131.23 61.5183 131.398 62.3747C131.497 62.8804 131.437 63.0339 130.998 63.2853C130.205 63.7413 129.422 64.2215 128.602 64.6263C128.118 64.8657 127.577 64.9981 127.05 65.1396C126.714 65.2299 126.362 64.959 126.27 64.5707C126.139 64.0123 126.032 63.4493 125.911 62.8894C125.86 62.6531 125.8 62.4183 125.723 62.1023C125.552 62.307 125.439 62.4575 125.312 62.5929C124.787 63.1498 124.273 63.7188 123.727 64.2546C123.307 64.6655 122.834 65.0147 122.244 65.2043C122.137 65.1065 122.034 65.0192 121.938 64.9228C121.153 64.1387 120.372 63.353 119.589 62.5689C119.329 62.3085 119.07 62.0496 118.809 61.7907C118.563 61.5454 118.546 61.425 118.788 61.1676C118.984 60.9599 119.216 60.7868 119.421 60.5851C120.183 59.8371 120.939 59.0845 121.699 58.335C121.844 58.192 121.995 58.0565 122.193 57.8714C122.067 57.894 122.003 57.8955 121.945 57.9181C121.334 58.1559 120.699 58.2176 120.049 58.1965C119.612 58.183 119.173 58.201 118.734 58.1995C118.611 58.1995 118.485 58.195 118.365 58.1679C118.106 58.1092 118.017 58.0069 118.028 57.7375C118.041 57.3838 118.076 57.0301 118.109 56.6779C118.183 55.8771 118.267 55.0779 118.337 54.2772C118.403 53.5036 118.462 52.7285 118.515 51.9533C118.542 51.5485 118.571 51.4883 118.961 51.3859C119.159 51.3347 119.366 51.2896 119.568 51.2926C120.827 51.3122 122.087 51.3407 123.345 51.3784C123.682 51.3874 124.018 51.4341 124.379 51.4672C124.425 51.1346 124.48 50.8546 124.501 50.5731C124.563 49.7574 124.611 48.9401 124.668 48.1228C124.691 47.7962 124.718 47.4696 124.759 47.146C124.792 46.8706 124.976 46.7216 125.303 46.69C125.616 46.6599 125.929 46.6222 126.243 46.6147C127.571 46.5846 128.898 46.5605 130.226 46.5425C130.457 46.5395 130.687 46.5921 130.92 46.6042C131.131 46.6147 131.217 46.7246 131.199 46.9218C131.161 47.3281 131.126 47.736 131.072 48.1409C130.96 48.9777 130.835 49.8131 130.71 50.6905C130.897 50.7237 131.052 50.7688 131.209 50.7763C132.001 50.8155 132.795 50.8395 133.588 50.8817C134.204 50.9133 134.73 51.1346 135.116 51.6403C135.249 51.8134 135.31 51.9879 135.279 52.2092C135.086 53.6827 134.895 55.1562 134.717 56.6327C134.658 57.1174 134.388 57.4304 133.984 57.6487C133.142 58.1032 132.267 58.4388 131.283 58.3651C131.108 58.3485 130.933 58.3591 130.683 58.3591ZM124.013 57.3597C124.172 57.5433 124.318 57.7074 124.455 57.8759C124.845 58.3515 125.228 58.8302 125.619 59.3058C125.717 59.4247 125.83 59.5421 126.002 59.4307C126.761 58.9415 127.622 58.7007 128.473 58.4434C128.811 58.341 128.934 58.1544 128.951 57.8353C128.977 57.3717 129.005 56.9097 129.043 56.4476C129.085 55.9313 129.141 55.4166 129.185 54.9003C129.23 54.372 129.271 53.8437 129.315 53.2884C127.718 53.1905 126.16 53.4404 124.534 53.4449C124.371 54.7769 124.095 56.0638 124.013 57.3597Z" fill="black"/>
<path d="M44.5581 97.239C44.6305 96.5617 44.7014 95.8829 44.7753 95.2056C44.8719 94.3251 44.9744 93.4446 45.0665 92.5626C45.1585 91.6807 45.2294 90.7972 45.3335 89.9167C45.3561 89.721 45.4692 89.5329 45.5628 89.3523C45.7619 88.9639 45.9837 88.5862 46.1783 88.1948C46.2808 87.9871 46.4287 87.9239 46.6444 87.96C47.3187 88.0699 47.9946 88.1662 48.6659 88.2881C49.0702 88.3619 49.3055 88.6433 49.4141 89.0241C49.5152 89.3793 49.577 89.7451 49.6796 90.0988C49.8109 90.5488 49.6208 90.9627 49.5559 91.3872C49.3357 92.8306 49.0958 94.2709 48.8544 95.7098C48.7322 96.4353 48.5935 97.1592 48.4532 97.8817C48.3913 98.2008 48.3521 98.2354 48.0081 98.2203C47.4892 98.1963 46.9702 98.1541 46.4528 98.1105C45.9897 98.0713 45.5281 98.0096 45.065 97.9795C44.5837 97.9479 44.5581 97.9329 44.5686 97.4482C44.5701 97.3805 44.5686 97.3113 44.5686 97.2435C44.5641 97.2405 44.5611 97.239 44.5581 97.239Z" fill="black"/>
<path d="M43.923 89.1145C43.831 89.6713 43.742 90.2328 43.6439 90.7942C43.4101 92.1367 43.1763 93.4793 42.9364 94.8218C42.8142 95.5051 42.6799 96.187 42.5502 96.8703C42.5351 96.95 42.5185 97.0313 42.4959 97.1096C42.3496 97.6228 42.2349 97.6921 41.7024 97.6364C40.8727 97.5506 40.043 97.4738 39.2133 97.3986C38.8543 97.3655 38.714 97.2405 38.7456 96.8808C38.8211 96.053 38.9176 95.2282 39.0096 94.4034C39.1107 93.4958 39.2088 92.5882 39.3174 91.6822C39.4275 90.7626 39.5316 89.8414 39.6719 88.9263C39.7488 88.4251 39.9389 87.957 40.2632 87.5491C40.4609 87.3023 40.6856 87.1668 41.0055 87.224C41.6375 87.3384 42.2681 87.4528 42.9002 87.5672C42.9937 87.5838 43.0873 87.6033 43.1823 87.6154C43.5579 87.662 43.6846 87.7674 43.7586 88.1346C43.8219 88.4522 43.8657 88.7713 43.923 89.1145Z" fill="black"/>
<path d="M36.4149 94.9227C35.8809 94.873 35.2941 94.8248 34.7103 94.7601C34.4613 94.733 34.3859 94.6186 34.4191 94.3658C34.5277 93.5545 34.6484 92.7463 34.748 91.9335C34.8053 91.4594 34.8249 90.9823 34.8686 90.5067C34.8943 90.2358 34.9049 89.9573 34.9742 89.6969C35.0421 89.4381 35.1507 89.1807 35.2865 88.9504C35.6335 88.3589 36.083 87.8426 36.5703 87.3595C37.0455 86.8884 37.5629 86.5949 38.2599 86.8117C38.4681 86.8764 38.6853 86.9185 38.8995 86.9622C39.1047 87.0043 39.165 87.1277 39.1288 87.3219C38.9372 88.3529 38.7939 89.3959 38.545 90.4134C38.2961 91.4338 37.9582 92.4332 37.6278 93.4326C37.4965 93.8315 37.2884 94.2077 37.1013 94.5885C36.9746 94.8429 36.7649 94.9799 36.4149 94.9227Z" fill="black"/>
</g>
<defs>
<clipPath id="clip0">
<rect width="178" height="99" fill="white"/>
</clipPath>
</defs>
</svg>
