<?xml version="1.0" encoding="UTF-8"?>
<svg width="26px" height="17px" viewBox="0 0 26 17" version="1.1" xmlns="http://www.w3.org/2000/svg" xmlns:xlink="http://www.w3.org/1999/xlink">
    <!-- Generator: Sketch 50 (54983) - http://www.bohemiancoding.com/sketch -->
    <title>Mail</title>
    <desc>Created with Sketch.</desc>
    <defs></defs>
    <g id="Page-1" stroke="none" stroke-width="1" fill="none" fill-rule="evenodd">
        <path d="M20.10711,2.50822905 L4.7379227,2.50822905 C7.34928605,4.74360018 9.87611547,6.90674994 12.4141548,9.07908816 C14.9799434,6.88763792 17.4990545,4.73588187 20.10711,2.50822905 M1.86082878,2.41854958 C1.83252829,2.71239687 1.79889849,2.8996579 1.79871472,3.08691893 C1.79559064,6.79115898 1.79614195,10.495399 1.79650949,14.1994553 C1.79650949,14.8924497 1.79706079,14.8935524 2.47737516,14.8935524 C9.19690372,14.8939199 15.9164323,14.8939199 22.6359608,14.8935524 C23.3001035,14.8935524 23.3230747,14.8705812 23.3232584,14.1884291 C23.3238098,10.4994419 23.323626,6.81063853 23.3230747,3.12183512 C23.3230747,2.99962846 23.3322631,2.87411395 23.3096595,2.75558268 C23.2506695,2.4466663 23.0731483,2.379958 22.8162386,2.5536201 C22.6903566,2.63888911 22.5786248,2.74565913 22.4622987,2.84489462 C19.5993551,5.28994665 16.7376978,7.73646883 13.8731002,10.1796832 C12.8193664,11.0786831 11.9953443,11.0720674 10.9430807,10.1708622 C8.08307731,7.72231859 5.22307395,5.27377494 2.36251928,2.82596637 C2.2278163,2.71074295 2.08741647,2.60231899 1.86082878,2.41854958 M12.5323186,16.6538796 C9.11916926,16.6538796 5.70601996,16.655166 2.29287067,16.6533283 C0.80103058,16.6524094 0.00273625295,15.8531962 0.00163363648,14.3573132 C-0.000939135296,10.5766251 -0.000755365884,6.79612075 0.00144986706,3.01580017 C0.00236871413,1.46791041 0.803603352,0.672556394 2.35241196,0.672372625 C9.17871055,0.671270009 16.0050091,0.670167392 22.8313077,0.669799853 C24.2533154,0.669616084 25.0718244,1.43593453 25.0786239,2.86474171 C25.096817,6.73713077 25.0778888,10.6093361 25.0887312,14.4815413 C25.0922228,15.7034242 24.2503751,16.6895308 22.817525,16.6695 C19.3896742,16.6213524 15.9609045,16.6538796 12.5323186,16.6538796" id="Mail" fill="#0B37B0"></path>
    </g>
</svg>
