<svg xmlns="http://www.w3.org/2000/svg" width="30" height="30" viewBox="0 0 30 30"><defs><style>.cls-1{fill:#1739a9;}</style></defs><title>Shop_Icons</title><g id="Layer_4" data-name="Layer 4"><path class="cls-1" d="M22.93,10.69a2,2,0,0,0-2-1.79H18.47V7.48a3.47,3.47,0,1,0-6.94,0V8.9H9.07a2,2,0,0,0-2,1.79L5.69,23.78a2,2,0,0,0,2,2.21H22.32a2,2,0,0,0,2-2.21ZM13,7.48a2,2,0,1,1,3.94,0V8.9H13Zm9.66,16.85a.49.49,0,0,1-.37.16H7.68a.49.49,0,0,1-.37-.16.51.51,0,0,1-.13-.4L8.56,10.85a.51.51,0,0,1,.51-.45h2.46v2.86H13V10.4H17v2.86h1.5V10.4h2.47a.51.51,0,0,1,.5.45l1.38,13.08A.51.51,0,0,1,22.69,24.33Z"/></g></svg>
