<svg width="1273" height="794" viewBox="0 0 1273 794" fill="none" xmlns="http://www.w3.org/2000/svg">
<path d="M11.5335 8.5991C33.9532 -5.19991 46.5397 25.1643 74.6758 25.1643C102.812 25.1643 102.812 6.72306 130.952 6.72306C159.088 6.72306 159.088 25.1643 187.229 25.1643C215.369 25.1643 215.369 6.72306 243.505 6.72306C271.641 6.72306 271.641 25.1643 299.782 25.1643C327.918 25.1643 327.918 6.72306 356.058 6.72306C384.199 6.72306 384.199 25.1643 412.335 25.1643C440.475 25.1643 440.475 6.72306 468.611 6.72306C496.752 6.72306 496.752 25.1643 524.888 25.1643C553.028 25.1643 553.028 6.72306 581.164 6.72306C609.305 6.72306 609.305 25.1643 637.441 25.1643C665.581 25.1643 665.581 6.72306 693.717 6.72306C721.858 6.72306 721.858 25.1643 749.994 25.1643C778.134 25.1643 778.134 6.72306 806.27 6.72306C834.406 6.72306 834.406 25.1643 862.547 25.1643C890.687 25.1643 890.687 6.72306 918.823 6.72306C946.963 6.72306 946.963 25.1643 975.1 25.1643C1003.24 25.1643 1003.24 6.72306 1031.38 6.72306C1059.52 6.72306 1059.52 25.1643 1087.66 25.1643C1115.8 25.1643 1115.8 6.72306 1143.93 6.72306C1172.07 6.72306 1172.07 25.1643 1200.21 25.1643C1228.35 25.1643 1240.94 -5.20346 1263.36 8.59556C1280.37 19.0645 1245.13 33.2643 1245.13 50.5848C1245.13 67.9054 1267.86 67.9054 1267.86 85.226C1267.86 102.547 1245.13 102.547 1245.13 119.867C1245.13 137.188 1267.86 137.188 1267.86 154.508C1267.86 171.829 1245.13 171.829 1245.13 189.149C1245.13 206.47 1267.86 206.47 1267.86 223.791C1267.86 241.111 1245.13 241.111 1245.13 258.432C1245.13 275.752 1267.86 275.752 1267.86 293.073C1267.86 310.394 1245.13 310.394 1245.13 327.714C1245.13 345.035 1267.86 345.035 1267.86 362.355C1267.86 379.676 1245.13 379.676 1245.13 396.996C1245.13 414.317 1267.86 414.317 1267.86 431.638C1267.86 448.958 1245.13 448.958 1245.13 466.279C1245.13 483.599 1267.86 483.599 1267.86 500.92C1267.86 518.241 1245.13 518.241 1245.13 535.561C1245.13 552.882 1267.86 552.882 1267.86 570.202C1267.86 587.523 1245.13 587.523 1245.13 604.843C1245.13 622.164 1267.86 622.164 1267.86 639.485C1267.86 656.805 1245.13 656.805 1245.13 674.126C1245.13 691.446 1267.86 691.446 1267.86 708.767C1267.86 726.087 1245.13 726.087 1245.13 743.411C1245.13 760.732 1280.37 774.932 1263.36 785.401C1240.95 799.2 1228.35 768.836 1200.22 768.836C1172.08 768.836 1172.08 787.277 1143.94 787.277C1115.81 787.277 1115.81 768.836 1087.67 768.836C1059.53 768.836 1059.53 787.277 1031.39 787.277C1003.25 787.277 1003.25 768.836 975.113 768.836C946.977 768.836 946.977 787.277 918.836 787.277C890.696 787.277 890.696 768.836 862.56 768.836C834.419 768.836 834.419 787.277 806.283 787.277C778.143 787.277 778.143 768.836 750.007 768.836C721.866 768.836 721.866 787.277 693.73 787.277C665.59 787.277 665.59 768.836 637.454 768.836C609.313 768.836 609.313 787.277 581.177 787.277C553.037 787.277 553.037 768.836 524.901 768.836C496.76 768.836 496.76 787.277 468.624 787.277C440.488 787.277 440.488 768.836 412.348 768.836C384.207 768.836 384.207 787.277 356.071 787.277C327.931 787.277 327.931 768.836 299.795 768.836C271.654 768.836 271.654 787.277 243.518 787.277C215.378 787.277 215.378 768.836 187.238 768.836C159.097 768.836 159.097 787.277 130.961 787.277C102.821 787.277 102.821 768.836 74.6802 768.836C46.5397 768.836 33.9532 799.203 11.5335 785.404C-5.47134 774.935 29.7621 760.736 29.7621 743.415C29.7621 726.095 7.03649 726.095 7.03649 708.774C7.03649 691.453 29.7621 691.453 29.7621 674.133C29.7621 656.812 7.03649 656.812 7.03649 639.492C7.03649 622.171 29.7621 622.171 29.7621 604.851C29.7621 587.53 7.03649 587.53 7.03649 570.209C7.03649 552.889 29.7621 552.889 29.7621 535.568C29.7621 518.248 7.03649 518.248 7.03649 500.927C7.03649 483.606 29.7621 483.606 29.7621 466.286C29.7621 448.965 7.03649 448.965 7.03649 431.645C7.03649 414.324 29.7621 414.324 29.7621 397.004C29.7621 379.683 7.03649 379.683 7.03649 362.362C7.03649 345.042 29.7621 345.042 29.7621 327.721C29.7621 310.401 7.03649 310.401 7.03649 293.08C7.03649 275.759 29.7621 275.759 29.7621 258.439C29.7621 241.118 7.03649 241.118 7.03649 223.798C7.03649 206.477 29.7621 206.477 29.7621 189.157C29.7621 171.836 7.03649 171.836 7.03649 154.515C7.03649 137.195 29.7621 137.195 29.7621 119.874C29.7621 102.554 7.03649 102.554 7.03649 85.2331C7.03649 67.9125 35.3037 64.6215 29.3032 47.996C21.4148 26.1183 -5.47134 19.0681 11.5335 8.5991Z" stroke="#EAB145" stroke-width="10" stroke-miterlimit="10"/>
</svg>
