<svg width="187" height="5" viewBox="0 0 187 5" fill="none" xmlns="http://www.w3.org/2000/svg">
<path d="M187 4C182.079 4 182.079 1 177.158 1C172.237 1 172.237 4 167.316 4C162.395 4 162.395 1 157.474 1C152.553 1 152.553 4 147.632 4C142.711 4 142.711 1 137.79 1C132.868 1 132.868 4 127.948 4C123.026 4 123.026 1 118.106 1C113.184 1 113.184 4 108.264 4C103.342 4 103.342 1 98.4218 1C93.5004 1 93.5004 4 88.5797 4C83.6584 4 83.6584 1 78.7377 1C73.8163 1 73.8163 4 68.8957 4C63.9751 4 63.9751 1 59.0537 1C54.1323 1 54.1323 4 49.2117 4C44.2903 4 44.2903 1 39.3696 1C34.4482 1 34.4482 4 29.5276 4C24.6062 4 24.6062 1 19.6848 1C14.7634 1 14.7634 4 9.84279 4C4.9214 4 4.9214 1 0 1" stroke="black" stroke-width="2" stroke-miterlimit="10"/>
</svg>
